HIERARCHY
ROOT Hips
{
	OFFSET 0.00 0.00 0.00
	CHANNELS 6 Xposition Yposition Zposition Yrotation Xrotation Zrotation
	JOINT Spine
	{
		OFFSET	0.0000	9.2263	1.5771
		CHANNELS 3 Xrotation Yrotation Zrotation
		JOINT Spine1
		{
			OFFSET	0.0000	16.2540	-0.1656
			CHANNELS 3 Xrotation Yrotation Zrotation
			JOINT Spine2
			{
				OFFSET	0.0000	13.6396	-1.2923
				CHANNELS 3 Xrotation Yrotation Zrotation
				JOINT Neck
				{
					OFFSET	0.0000	13.8774	-4.3542
					CHANNELS 3 Xrotation Yrotation Zrotation
					JOINT Neck1
					{
						OFFSET	0.0000	4.3400	0.9269
						CHANNELS 3 Xrotation Yrotation Zrotation
						JOINT Head
						{
							OFFSET	0.0000	4.0266	0.8585
							CHANNELS 3 Xrotation Yrotation Zrotation
							End Site
							{
								OFFSET 0.0000 23.0297 0.1231
							}
						}
					}
				}
				JOINT LeftShoulder
				{
					OFFSET	6.1442	10.1870	-3.7932
					CHANNELS 3 Zrotation Xrotation Yrotation
					JOINT LeftArm
					{
						OFFSET	12.3191	-1.1130	-1.7935
						CHANNELS 3 Zrotation Xrotation Yrotation
						JOINT LeftForeArm
						{
							OFFSET	27.6870	0.0000	0.0000
							CHANNELS 3 Xrotation Zrotation Yrotation
							JOINT LeftHand
							{
								OFFSET	27.8738	0.0000	0.0000
								CHANNELS 3 Zrotation Yrotation Xrotation
								End Site
								{
									OFFSET	10.0000	0.0000	0.0000
								}
							}
						}
					}
				}
				JOINT RightShoulder
				{
					OFFSET	-6.1402	10.1870	-3.7932
					CHANNELS 3 Zrotation Xrotation Yrotation
					JOINT RightArm
					{
						OFFSET	-12.3231	-1.1130	-1.7935
						CHANNELS 3 Zrotation Xrotation Yrotation
						JOINT RightForeArm
						{
							OFFSET	-27.6870	0.0000	0.0000
							CHANNELS 3 Xrotation Zrotation Yrotation
							JOINT RightHand
							{
								OFFSET	-27.8738	0.0000	0.0000
								CHANNELS 3 Zrotation Yrotation Xrotation
								End Site
								{
									OFFSET	-10.0000	0.0000	0.0000
								}
							}
						}
					}
				}
			}
		}
	}
	JOINT LeftUpLeg
	{
		OFFSET	9.6338	-3.2733	0.0000
		CHANNELS 3 Xrotation Yrotation Zrotation
		JOINT LeftLeg
		{
			OFFSET	0.0000	-41.7300	-1.7300
			CHANNELS 3 Xrotation Yrotation Zrotation
			JOINT LeftFoot
			{
				OFFSET	0.0126	-39.1900	-0.8477
				CHANNELS 3 Xrotation Yrotation Zrotation
				JOINT LeftToeBase
				{
					OFFSET	-0.1833	-12.1931	8.2823
					CHANNELS 3 Xrotation Yrotation Zrotation
					End Site
					{
						OFFSET 0.0000 0.0000 10.1681
					}
				}
			}
		}
	}
	JOINT RightUpLeg
	{
		OFFSET	-9.6338	-3.2733	0.0000
		CHANNELS 3 Xrotation Yrotation Zrotation
		JOINT RightLeg
		{
			OFFSET	0.0000	-41.7300	-1.7300
			CHANNELS 3 Xrotation Yrotation Zrotation
			JOINT RightFoot
			{
				OFFSET	0.0126	-39.1900	-0.8477
				CHANNELS 3 Xrotation Yrotation Zrotation
				JOINT RightToeBase
				{
					OFFSET	-0.1833	-12.1931	8.2823
					CHANNELS 3 Xrotation Yrotation Zrotation
					End Site
					{
						OFFSET 0.0032 0.0000 10.1681
					}
				}
			}
		}
	}
}
MOTION
Frames: 17
Frame Time: 0.0333333
-7.9764	95.5262	6.3433	-0.1904	1.7826	-0.4437	0.004	0.1913	0.2667	0.0072	0.3807	0.5145	0.0072	0.3807	0.5145	13.3954	2.6388	-2.8968	0	0	0	-10.352	-5.6661	3.0034	-4.05	2.4505	-0.4553	-72.5174	40.5067	3.8446	-3.1046	-0.3835	-25.4719	5.7251	-0.2604	-4.4779																																														2.9714	4.4621	4.8876	68.6813	39.1357	-2.0814	-9.6996	-0.3612	26.7523	-0.2696	-7.3159	4.5546																																														-6.353	-6.9252	4.2114	14.3948	-0.3208	-0.1099	-8.7621	14.2092	-4.2762	-0.4065	-0.0269	0.0635	-12.1093	-13.6152	-5.0845	16.49	0.1213	0.2371	-6.246	-1.9795	2.7706	-0.0592	-0.1098	0.1516
-7.9712	95.4805	6.4133	-0.1464	1.6668	-0.4895	-0.0071	0.1921	0.2607	-0.0149	0.3822	0.5007	-0.0149	0.3822	0.5007	13.3627	2.641	-2.8826	0	0	0	-10.3808	-5.6693	3.0201	-4.0099	2.4499	-0.4847	-72.2176	40.4781	3.6812	-3.1023	-0.3869	-25.7452	5.5835	-0.1766	-4.3944																																														2.981	4.4605	4.9091	68.8171	39.3476	-2.2303	-9.7011	-0.3646	27.0089	-0.0722	-7.4763	4.5046																																														-6.4752	-6.9703	4.233	14.9878	-0.3157	-0.1251	-9.116	14.1885	-4.2665	-0.4015	-0.0354	0.0113	-12.1317	-13.7844	-5.1286	16.8822	0.1267	0.2514	-6.5046	-1.8537	2.7787	-0.0626	-0.1024	0.1606
-7.9727	95.426	6.4952	-0.0955	1.523	-0.55	-0.0212	0.1947	0.2597	-0.0432	0.3874	0.4959	-0.0433	0.3874	0.4959	13.3379	2.6422	-2.8752	0	0	0	-10.4001	-5.6666	3.0181	-3.9427	2.4491	-0.5118	-71.9715	40.5701	3.5662	-3.0994	-0.3912	-26.0916	5.4436	0.179	-4.9937																																														2.9532	4.4587	4.9256	68.8966	39.5694	-2.3577	-9.7027	-0.3682	27.2795	0.159	-7.6225	4.3425																																														-6.6013	-7.0028	4.2748	15.6657	-0.3136	-0.1428	-9.5217	14.145	-4.2619	-0.3985	-0.0432	-0.0446	-12.142	-13.9898	-5.1679	17.3296	0.1326	0.2667	-6.8022	-1.7004	2.7837	-0.0678	-0.0939	0.1739
-7.9816	95.3637	6.5904	-0.0481	1.3566	-0.6138	-0.0353	0.1961	0.2629	-0.0714	0.3903	0.4993	-0.0714	0.3903	0.4993	13.3005	2.6454	-2.8703	0	0	0	-10.4353	-5.6601	3.003	-3.8582	2.4474	-0.5314	-71.8219	40.674	3.5167	-3.0969	-0.3956	-26.4235	5.6424	0.0374	-5.7081																																														2.8777	4.4538	4.9726	68.8451	39.7275	-2.3727	-9.7038	-0.3707	27.4673	0.2055	-7.5387	4.0602																																														-6.7121	-7.0143	4.3276	16.3828	-0.3098	-0.1622	-9.9591	14.0785	-4.2624	-0.3991	-0.05	-0.0972	-12.1477	-14.1994	-5.2097	17.8364	0.1431	0.2841	-7.1416	-1.5417	2.785	-0.0719	-0.0855	0.1845
-7.9984	95.2922	6.6957	-0.0084	1.1668	-0.6674	-0.0376	0.1935	0.2641	-0.0759	0.3853	0.4993	-0.0759	0.3853	0.4993	13.2216	2.646	-2.8519	0	0	0	-10.5626	-5.6754	3.019	-3.752	2.4458	-0.5472	-71.5903	40.2922	3.3301	-3.0967	-0.3977	-26.573	6.7056	-1.6953	-4.9887																																														2.7173	4.4418	5.0953	68.558	39.6714	-2.1314	-9.7043	-0.3712	27.5006	-0.1053	-7.0511	3.8387																																														-6.8009	-7.0041	4.3795	17.1246	-0.3109	-0.1845	-10.4212	14.0013	-4.266	-0.3926	-0.0553	-0.1517	-12.1646	-14.3667	-5.2638	18.4335	0.1504	0.305	-7.5375	-1.4085	2.7828	-0.0755	-0.077	0.1938
-8.0253	95.2036	6.7979	0.0075	0.9264	-0.7007	-0.015	0.1904	0.2487	-0.0307	0.3793	0.4666	-0.0307	0.3793	0.4666	13.0976	2.6363	-2.7935	0	0	0	-10.8605	-5.7719	3.1354	-3.5254	2.4441	-0.5777	-70.8217	38.5958	2.5195	-3.1003	-0.3948	-26.3651	8.6156	-5.5174	-1.7187																																														2.3532	4.419	5.316	67.9108	39.1643	-1.4307	-9.704	-0.3694	27.3287	-0.6859	-6.2203	3.9067																																														-6.8775	-6.9661	4.4195	17.9527	-0.3182	-0.2091	-10.9325	13.9272	-4.2758	-0.3686	-0.0632	-0.2398	-12.2176	-14.4733	-5.3484	19.199	0.1547	0.3327	-8.0198	-1.2964	2.772	-0.0811	-0.0679	0.2083
-8.0663	95.0935	6.8819	-0.0181	0.5996	-0.695	0.0261	0.1986	0.2022	0.0517	0.396	0.3737	0.0517	0.396	0.3737	12.9834	2.6063	-2.6913	0	0	0	-11.2831	-6.0089	3.3765	-2.9289	2.438	-0.6545	-69.1759	34.8933	0.6317	-3.1072	-0.385	-25.7052	10.5369	-10.4739	2.8731																																														1.5337	4.3822	5.6014	66.7591	37.9138	-0.0064	-9.7011	-0.3625	26.7325	-1.2908	-5.2616	4.1808																																														-6.919	-6.8766	4.4344	18.8689	-0.3271	-0.233	-11.4822	13.8548	-4.2991	-0.3307	-0.0805	-0.395	-12.3179	-14.5571	-5.497	20.1804	0.1601	0.3685	-8.5995	-1.1462	2.746	-0.0906	-0.0569	0.2326
-8.1292	94.9802	6.9528	-0.0786	0.2157	-0.6367	0.0466	0.2279	0.1271	0.0929	0.4546	0.2265	0.0929	0.4546	0.2265	12.9758	2.5512	-2.5844	0	0	0	-11.6006	-6.3824	3.6715	-1.5862	2.4178	-0.7844	-66.9008	29.0849	-2.3705	-3.1155	-0.3676	-24.5394	12.2586	-14.4016	5.8603																																														-0.0576	4.3286	5.8713	64.9637	35.6683	2.345	-9.6914	-0.3433	25.2197	-1.9068	-4.2774	4.2641																																														-6.8623	-6.7237	4.4251	19.6784	-0.3339	-0.2517	-11.9674	13.7703	-4.3439	-0.2862	-0.1068	-0.6065	-12.4232	-14.6857	-5.7108	21.2219	0.164	0.4063	-9.1998	-0.9012	2.7034	-0.1017	-0.0425	0.2612
-8.223	94.9031	7.0427	-0.1284	-0.0954	-0.5539	-0.0079	0.2709	0.0462	-0.0159	0.5404	0.069	-0.0159	0.5404	0.069	13.1439	2.4821	-2.5205	0	0	0	-11.5452	-6.8029	3.9042	0.8657	2.3779	-0.8944	-64.6225	21.7901	-6.1953	-3.1235	-0.3412	-22.6378	14.3444	-15.7487	5.5704																																														-2.6112	4.2621	6.0344	62.4338	32.3356	5.553	-9.6712	-0.3039	22.3513	-2.8552	-3.2552	3.8586																																														-6.6738	-6.5567	4.4302	20.0799	-0.335	-0.2605	-12.2459	13.6678	-4.4146	-0.2879	-0.1274	-0.6775	-12.4509	-14.9062	-5.9059	21.9693	0.1607	0.433	-9.6661	-0.5851	2.6501	-0.1098	-0.0264	0.2821
-8.3485	94.8978	7.1866	-0.0994	-0.1998	-0.5003	-0.1648	0.3044	-0.0159	-0.3294	0.6076	-0.0527	-0.3294	0.6076	-0.0527	13.4586	2.4192	-2.5049	0	0	0	-11.0803	-7.1564	4.0299	4.4794	2.3342	-0.8446	-62.5064	14.1924	-10.5519	-3.1305	-0.3001	-19.4986	16.3487	-14.8542	3.1353																																														-6.0476	4.2007	6.0144	59.1225	28.0309	9.2238	-9.6429	-0.2451	18.2674	-4.3618	-2.4302	2.8208																																														-6.3622	-6.4779	4.4944	19.8584	-0.3233	-0.2575	-12.2217	13.5595	-4.5073	-0.2857	-0.1242	-0.6724	-12.32	-15.2035	-5.9623	22.1054	0.1425	0.4356	-9.8688	-0.3112	2.5984	-0.1093	-0.0096	0.2806
-8.4975	94.9728	7.395	0.0538	-0.0723	-0.496	-0.3963	0.3041	-0.0543	-0.7922	0.6076	-0.1305	-0.7922	0.6076	-0.1305	13.7774	2.3807	-2.5004	0	0	0	-10.5168	-7.3836	4.1286	8.6846	2.3224	-0.5359	-59.6639	7.5191	-15.1998	-3.1359	-0.2372	-14.8333	17.1905	-13.124	0.2094																																														-10.0412	4.1749	5.7779	54.9704	23.0013	12.8278	-9.6157	-0.18	13.7745	-6.1957	-2.2239	0.667																																														-5.9161	-6.565	4.6226	18.9486	-0.2947	-0.2432	-11.8651	13.4664	-4.6119	-0.2657	-0.0873	-0.6251	-11.9775	-15.5007	-5.8212	21.5365	0.0962	0.4096	-9.7726	-0.2074	2.5598	-0.097	0.0127	0.2492
-8.6627	95.1096	7.6493	0.3267	0.2196	-0.5076	-0.6367	0.2573	-0.0829	-1.2729	0.5151	-0.1915	-1.2729	0.5151	-0.1915	13.8972	2.3722	-2.4839	0	0	0	-10.3261	-7.5039	4.3375	12.3834	2.3629	-0.0287	-54.5273	2.1214	-19.6838	-3.1397	-0.1568	-9.353	16.8567	-11.0183	-3.3045																																														-14.1145	4.2073	5.362	49.8147	17.4851	15.9215	-9.597	-0.1237	9.7942	-8.2279	-2.568	-3.48																																														-5.2939	-6.8139	4.7829	17.3777	-0.262	-0.2197	-11.1815	13.4098	-4.7197	-0.2664	-0.0209	-0.4669	-11.4417	-15.7151	-5.5239	20.3992	0.0132	0.3597	-9.4317	-0.325	2.5343	-0.0761	0.0434	0.1954
-8.8433	95.2786	7.9151	0.6507	0.6088	-0.4896	-0.8265	0.1714	-0.1162	-1.6526	0.3446	-0.2633	-1.6526	0.3446	-0.2633	13.65	2.3837	-2.4904	0	0	0	-10.8139	-7.5946	4.7541	14.6383	2.4296	0.4659	-46.0342	-2.8469	-23.0119	-3.1419	-0.0822	-4.6105	16.7249	-7.8715	-8.3415																																														-17.7036	4.2902	4.8747	43.3134	11.6354	18.2359	-9.5875	-0.0806	6.6594	-11.1393	-3.1946	-9.9554																																														-4.4728	-7.1504	4.945	15.1994	-0.2393	-0.1877	-10.1843	13.4154	-4.8295	-0.332	0.0604	-0.1045	-10.8172	-15.8258	-5.1612	18.9287	-0.0857	0.2961	-8.9319	-0.5959	2.5057	-0.0515	0.0748	0.1323
-9.0408	95.4548	8.1618	0.9189	1.0646	-0.4308	-0.9444	0.0761	-0.1571	-1.8885	0.1554	-0.3511	-1.8885	0.1554	-0.3511	12.9944	2.3908	-2.5933	0	0	0	-11.9293	-7.76	5.3897	15.3614	2.4778	0.7401	-34.5092	-8.1413	-24.1061	-3.1465	-0.0302	-1.4141	17.7833	-3.493	-14.7896																																														-20.3154	4.3926	4.4448	35.0901	5.6412	19.6206	-9.585	-0.0436	3.8885	-15.0841	-5.4085	-17.6699																																														-3.424	-7.4776	5.1156	12.4023	-0.2139	-0.1462	-8.8571	13.4934	-4.9468	-0.4093	0.1434	0.3107	-10.2229	-15.8989	-4.8008	17.3182	-0.1638	0.2292	-8.3388	-0.8526	2.4557	-0.0239	0.098	0.0615
-9.2497	95.6257	8.3824	1.0672	1.5634	-0.3621	-1.0029	0.0068	-0.1969	-2.0059	0.0185	-0.4426	-2.0059	0.0185	-0.4426	12.0217	2.3697	-2.8497	0	0	0	-13.2964	-8.072	6.152	15.2209	2.4849	0.7638	-21.5195	-13.4142	-23.4061	-3.1574	-0.0067	0.0001	18.2669	0.2995	-21.765																																														-21.8065	4.4755	4.1531	25.1565	-0.1359	20.0568	-9.5883	-0.0033	0.7721	-15.7636	-7.8752	-25.7957																																														-1.979	-7.7091	5.3531	8.6943	-0.1276	-0.0931	-7.0445	13.5949	-5.0823	-0.4842	0.2116	0.6886	-9.672	-16.0693	-4.4526	15.6118	-0.2262	0.1668	-7.6655	-0.8908	2.3864	-0.0001	0.1154	0
-9.4549	95.759	8.5944	1.1282	2.0715	-0.3515	-1.0334	-0.0262	-0.1976	-2.0669	-0.0419	-0.5232	-2.0669	-0.0419	-0.5232	10.8984	2.3155	-3.2507	0	0	0	-14.3852	-8.4946	6.8562	15.8092	2.594	0.4996	-9.3033	-18.108	-22.3781	-3.5961	-0.0062	0.0001	15.4535	0.8023	-29.0091																																														-23.1935	4.5632	4.1485	14.5259	-5.1356	19.1549	-9.9086	0.0064	0.0001	-10.9675	-9.4162	-33.8612																																														-0.0957	-7.8229	5.7821	4.1678	-0.1348	-0.0738	-4.8573	13.6884	-5.651	-0.7594	0.3704	1.6399	-9.1622	-16.4731	-4.0975	14.0696	-0.2787	0.1173	-7.2231	-0.5621	2.3165	0.197	0.0852	0.0243
-9.6469	95.8994	8.8225	1.1655	2.5656	-0.329	-1.0716	-0.0361	-0.2265	-2.1435	-0.0616	-0.5818	-2.1435	-0.0616	-0.5818	9.7728	2.2499	-3.7047	0	0	0	-14.7382	-8.885	7.3178	16.5529	2.7105	0.2449	1.2747	-23.6118	-22.8028	-4.0624	-0.0056	0	16.9596	5.2797	-32.756																																														-24.1972	4.6265	4.2451	3.9237	-10.0673	17.7701	-10.2513	0.0059	0.0001	-14.9147	-14.2459	-38.0305																																														0.8776	-8.0471	6.2718	1.5488	-0.3222	-0.0761	-3.1085	13.9245	-7.7205	-1.1209	0.5587	2.8896	-8.8054	-17.0978	-3.9427	12.7259	-0.115	0.0972	-6.6581	0.0673	3.0625	-0.0211	-0.1476	-0.8737
